<svg width='24' height='24' viewBox="0 0 24 24" fill="none" xmlns="http://www.w3.org/2000/svg">
  <path d="M22.25 22.5C22.25 22.6339 22.1339 22.75 22 22.75H2C1.86614 22.75 1.75 22.6339 1.75 22.5C1.75 22.3605 1.86179 22.25 2 22.25H22C22.1382 22.25 22.25 22.3605 22.25 22.5Z" fill="#FF6432" stroke="#FF6432" />
  <path opacity="0.4" d="M20.5002 10.4802V21.2502H3.45242L3.50019 10.4724H3.5002V10.4702C3.5002 10.0138 3.70947 9.58004 4.07661 9.29533L4.07701 9.29501L11.077 3.85501L11.077 3.85503L11.0805 3.85224C11.6187 3.42621 12.3817 3.42621 12.9199 3.85224L12.9198 3.85225L12.9234 3.85501L19.9234 9.29501L19.9238 9.29533C20.2899 9.57922 20.5002 10.0124 20.5002 10.4802Z" fill="#FF6432" stroke="#FF6432" />
  <path d="M13.5 8.25H10.5C10.3661 8.25 10.25 8.13386 10.25 8C10.25 7.86614 10.3661 7.75 10.5 7.75H13.5C13.6339 7.75 13.75 7.86614 13.75 8C13.75 8.13386 13.6339 8.25 13.5 8.25Z" fill="#FF6432" stroke="#FF6432" />
  <path d="M8.5 12H15.5C16.0539 12 16.5 12.4461 16.5 13V22H7.5V13C7.5 12.4461 7.94614 12 8.5 12ZM10 19.5C10.6861 19.5 11.25 18.9361 11.25 18.25V16.75C11.25 16.0639 10.6861 15.5 10 15.5C9.31386 15.5 8.75 16.0639 8.75 16.75V18.25C8.75 18.9361 9.31386 19.5 10 19.5Z" fill="#FF6432" stroke="#FF6432" />
</svg>
