<svg width='24' height='24' viewBox="0 0 24 24" fill="none" xmlns="http://www.w3.org/2000/svg">
  <path opacity="0.4" d="M2.55714 5.213L2.55724 5.21254C2.89436 3.75028 4.15477 3.00037 5.47461 3.00147C6.79468 3.00256 8.05526 3.75487 8.39264 5.21183C8.78915 6.96434 7.69258 8.50926 6.59628 9.55711C5.96911 10.1446 4.98095 10.1446 4.35378 9.55712C3.25525 8.50715 2.15188 6.96337 2.55714 5.213ZM4.01003 5.70022C4.01003 6.52636 4.68388 7.20022 5.51003 7.20022C6.34942 7.20022 7.01003 6.52309 7.01003 5.70022C7.01003 4.87734 6.34942 4.20022 5.51003 4.20022H5.50003C4.66736 4.20022 4.01003 4.88064 4.01003 5.70022Z" fill="#FF6432" stroke="#FF6432" />
  <path d="M6.00977 5.7002C6.00977 5.97732 5.79037 6.2002 5.50977 6.2002C5.23591 6.2002 5.00977 5.97405 5.00977 5.7002C5.00977 5.41977 5.23243 5.2002 5.49977 5.2002H5.50977C5.79037 5.2002 6.00977 5.42307 6.00977 5.7002Z" fill="#FF6432" stroke="#FF6432" />
  <path opacity="0.4" d="M21.4228 17.2129L21.4229 17.213C21.8281 18.9633 20.7245 20.5075 19.617 21.5564C18.9896 22.1448 17.9904 22.1448 17.363 21.5564C16.2556 20.5076 15.152 18.9636 15.557 17.2134C15.8985 15.7516 17.1659 15.0004 18.4933 15.0015C19.8214 15.0026 21.0861 15.7564 21.4228 17.2129ZM17.03 17.7002C17.03 18.5264 17.7039 19.2002 18.53 19.2002C19.3561 19.2002 20.03 18.5264 20.03 17.7002C20.03 16.8741 19.3561 16.2002 18.53 16.2002H18.52C17.6873 16.2002 17.03 16.8806 17.03 17.7002Z" fill="#FF6432" stroke="#FF6432" />
  <path d="M19.0303 17.7002C19.0303 17.9741 18.8041 18.2002 18.5303 18.2002C18.2564 18.2002 18.0303 17.9741 18.0303 17.7002C18.0303 17.4198 18.2529 17.2002 18.5203 17.2002H18.5303C18.8041 17.2002 19.0303 17.4263 19.0303 17.7002Z" fill="#FF6432" stroke="#FF6432" />
  <path d="M7.2193 18.2963L7.21932 18.2963L7.21788 18.2925C6.88291 17.4102 7.12494 16.4396 7.84078 15.8053C7.84112 15.805 7.84146 15.8047 7.84181 15.8044L15.8296 8.81632L15.8297 8.81629C16.5053 8.22512 16.5101 7.41782 16.321 6.89107L16.3211 6.89102L16.3171 6.88051C16.1139 6.35206 15.5803 5.75 14.6804 5.75H12.0004C11.8666 5.75 11.7504 5.63386 11.7504 5.5C11.7504 5.36614 11.8666 5.25 12.0004 5.25H14.6804C15.6331 5.25 16.4548 5.82148 16.7816 6.70366L16.7815 6.70366L16.783 6.70746C17.1179 7.58981 16.8759 8.56039 16.1601 9.19467C16.1597 9.19497 16.1594 9.19528 16.159 9.19558L8.17121 16.1837L8.17118 16.1837C7.49556 16.7749 7.49074 17.5822 7.67983 18.1089L7.67971 18.109L7.68376 18.1195C7.88701 18.6479 8.4206 19.25 9.32043 19.25H12.0004C12.1343 19.25 12.2504 19.3661 12.2504 19.5C12.2504 19.6339 12.1343 19.75 12.0004 19.75H9.32043C8.3678 19.75 7.54603 19.1785 7.2193 18.2963Z" fill="#FF6432" stroke="#FF6432" />
</svg>
