<svg
    width='24'
    height='24'
    viewBox="0 0 24 24"
    fill="none"
    xmlns="http://www.w3.org/2000/svg"
>
    <path
        opacity="0.4"
        d="M21.6817 14.2058L21.6817 14.2053C21.6073 13.3876 21.4664 12.6727 21.0405 12.1533C20.6374 11.6618 19.8937 11.25 18.3796 11.25H5.6196C4.10565 11.25 3.36472 11.6617 2.96283 12.1529C2.53765 12.6725 2.39695 13.3873 2.31738 14.207C2.31734 14.2074 2.3173 14.2078 2.31726 14.2083L1.7575 20.2958L1.75749 20.2959C1.70026 20.9172 1.90468 21.5377 2.3287 22.0027C2.76288 22.4778 3.37839 22.75 4.0396 22.75H5.9196C6.62591 22.75 6.96949 22.5516 7.16139 22.3574C7.37332 22.1428 7.47186 21.8672 7.57448 21.5542L7.57525 21.5519L7.77526 20.9519L7.77926 20.9399C7.8327 20.7795 7.88749 20.6151 7.95186 20.4754C8.02101 20.3252 8.11742 20.1655 8.27538 20.0354C8.58586 19.7795 9.00189 19.75 9.4396 19.75H14.5596C14.7864 19.75 14.9915 19.7557 15.1673 19.7837C15.3499 19.8128 15.5373 19.8711 15.7038 20.0021C15.868 20.1313 15.9654 20.2951 16.0348 20.4462C16.0982 20.5839 16.1553 20.7511 16.2138 20.9223L16.2227 20.9482L16.224 20.9519L16.2239 20.9519L16.4239 21.5519L16.4247 21.5542C16.5273 21.8672 16.6259 22.1428 16.8378 22.3574C17.0297 22.5516 17.3733 22.75 18.0796 22.75H19.9596C20.6117 22.75 21.2369 22.4772 21.6704 22.0028L21.6817 14.2058ZM21.6817 14.2058L22.2417 20.2958L22.2417 20.2959M21.6817 14.2058L22.2417 20.2959M22.2417 20.2959C22.2989 20.9172 22.0945 21.5377 21.6705 22.0027L22.2417 20.2959Z"
        fill="#FF6432"
        stroke="#FF6432"
    />
    <path
        d="M19.4907 7.85281L19.5741 8.25008H19.98H19.9801H19.9801H19.9802H19.9802H19.9803H19.9803H19.9804H19.9805H19.9805H19.9806H19.9806H19.9807H19.9807H19.9808H19.9809H19.9809H19.981H19.981H19.9811H19.9811H19.9812H19.9812H19.9813H19.9813H19.9814H19.9814H19.9815H19.9816H19.9816H19.9817H19.9817H19.9818H19.9818H19.9819H19.9819H19.982H19.982H19.9821H19.9821H19.9822H19.9822H19.9823H19.9823H19.9824H19.9824H19.9825H19.9825H19.9826H19.9826H19.9827H19.9827H19.9828H19.9828H19.9829H19.9829H19.9829H19.983H19.983H19.9831H19.9831H19.9832H19.9832H19.9833H19.9833H19.9834H19.9834H19.9835H19.9835H19.9835H19.9836H19.9836H19.9837H19.9837H19.9838H19.9838H19.9839H19.9839H19.9839H19.984H19.984H19.9841H19.9841H19.9842H19.9842H19.9842H19.9843H19.9843H19.9844H19.9844H19.9845H19.9845H19.9845H19.9846H19.9846H19.9847H19.9847H19.9847H19.9848H19.9848H19.9849H19.9849H19.9849H19.985H19.985H19.9851H19.9851H19.9851H19.9852H19.9852H19.9853H19.9853H19.9853H19.9854H19.9854H19.9855H19.9855H19.9855H19.9856H19.9856H19.9856H19.9857H19.9857H19.9858H19.9858H19.9858H19.9859H19.9859H19.9859H19.986H19.986H19.986H19.9861H19.9861H19.9862H19.9862H19.9862H19.9863H19.9863H19.9863H19.9864H19.9864H19.9864H19.9865H19.9865H19.9865H19.9866H19.9866H19.9866H19.9867H19.9867H19.9868H19.9868H19.9868H19.9869H19.9869H19.9869H19.987H19.987H19.987H19.9871H19.9871H19.9871H19.9872H19.9872H19.9872H19.9873H19.9873H19.9873H19.9874H19.9874H19.9874H19.9874H19.9875H19.9875H19.9875H19.9876H19.9876H19.9876H19.9877H19.9877H19.9877H19.9878H19.9878H19.9878H19.9879H19.9879H19.9879H19.988H19.988H19.988H19.9881H19.9881H19.9881H19.9881H19.9882H19.9882H19.9882H19.9883H19.9883H19.9883H19.9884H19.9884H19.9884H19.9885H19.9885H19.9885H19.9885H19.9886H19.9886H19.9886H19.9887H19.9887H19.9887H19.9888H19.9888H19.9888H19.9888H19.9889H19.9889H19.9889H19.989H19.989H19.989H19.9891H19.9891H19.9891H19.9891H19.9892H19.9892H19.9892H19.9893H19.9893H19.9893H19.9894H19.9894H19.9894H19.9894H19.9895H19.9895H19.9895H19.9896H19.9896H19.9896H19.9896H19.9897H19.9897H19.9897H19.9898H19.9898H19.9898H19.9899H19.9899H19.9899H19.9899H19.99H19.99H19.99H19.9901H19.9901H19.9901H19.9901H19.9902H19.9902H19.9902H19.9903H19.9903H19.9903H19.9904H19.9904H19.9904H19.9904H19.9905H19.9905H19.9905H19.9906H19.9906H19.9906H19.9906H19.9907H19.9907H19.9907H19.9908H19.9908H19.9908H19.9909H19.9909H19.9909H19.9909H19.991H19.991H19.991H19.9911H19.9911H19.9911H19.9912H19.9912H19.9912H19.9912H19.9913H19.9913H19.9913H19.9914H19.9914H19.9914H19.9915H19.9915H19.9915H19.9915H19.9916H19.9916H19.9916H19.9917H19.9917H19.9917H19.9918H19.9918H19.9918H19.9919H19.9919H19.9919H19.9919H19.992H19.992H19.992H19.9921H19.9921H19.9921H19.9922H19.9922H19.9922H19.9923H19.9923H19.9923H19.9924H19.9924H19.9924H19.9925H19.9925H19.9925H19.9925H19.9926H19.9926H19.9926H19.9927H19.9927H19.9927H19.9928H19.9928H19.9928H19.9929H19.9929H19.9929H19.993H19.993H19.993H19.9931H19.9931H19.9931H19.9932H19.9932H19.9932H19.9933H19.9933H19.9934H19.9934H19.9934H19.9935H19.9935H19.9935H19.9936H19.9936H19.9936H19.9937H19.9937H19.9937H19.9938H19.9938H19.9938H19.9939H19.9939H19.994H19.994H19.994H19.9941H19.9941H19.9941H19.9942H19.9942H19.9942H19.9943H19.9943H19.9944H19.9944H19.9944H19.9945H19.9945H19.9945H19.9946H19.9946H19.9947H19.9947H19.9947H19.9948H19.9948H19.9949H19.9949H19.9949H19.995H19.995H19.9951H19.9951H19.9951H19.9952H19.9952H19.9953H19.9953H19.9953H19.9954H19.9954H19.9955H19.9955H19.9955H19.9956H19.9956H19.9957H19.9957H19.9958H19.9958H19.9958H19.9959H19.9959H19.996H19.996H19.9961H19.9961H19.9961H19.9962H19.9962H19.9963H19.9963H19.9964H19.9964H19.9965H19.9965H19.9965H19.9966H19.9966H19.9967H19.9967H19.9968H19.9968H19.9969H19.9969H19.997H19.997H19.9971H19.9971H19.9971H19.9972H19.9972H19.9973H19.9973H19.9974H19.9974H19.9975H19.9975H19.9976H19.9976H19.9977H19.9977H19.9978H19.9978H19.9979H19.9979H19.998H19.998H19.9981H19.9981H19.9982H19.9982H19.9983H19.9983H19.9984H19.9984H19.9985H19.9986H19.9986H19.9987H19.9987H19.9988H19.9988H19.9989H19.9989H19.999H19.999H19.9991H19.9991H19.9992H19.9993H19.9993H19.9994H19.9994H19.9995H19.9995H19.9996H19.9997H19.9997H19.9998H19.9998H19.9999H19.9999H20H21C21.1339 8.25008 21.25 8.36622 21.25 8.50008C21.25 8.63394 21.1339 8.75008 21 8.75008H20.29H19.6741L19.8007 9.35284L20.0294 10.4418C19.5573 10.3161 19.0106 10.2501 18.38 10.2501H5.62C4.9894 10.2501 4.44269 10.3161 3.97064 10.4418L4.19933 9.35284L4.32591 8.75008H3.71H3C2.86614 8.75008 2.75 8.63394 2.75 8.50008C2.75 8.36622 2.86614 8.25008 3 8.25008H4H4.00006H4.00012H4.00017H4.00023H4.00029H4.00035H4.0004H4.00046H4.00052H4.00057H4.00063H4.00069H4.00074H4.0008H4.00085H4.00091H4.00096H4.00102H4.00107H4.00113H4.00118H4.00124H4.00129H4.00134H4.0014H4.00145H4.0015H4.00155H4.00161H4.00166H4.00171H4.00176H4.00181H4.00187H4.00192H4.00197H4.00202H4.00207H4.00212H4.00217H4.00222H4.00227H4.00232H4.00237H4.00242H4.00247H4.00252H4.00257H4.00261H4.00266H4.00271H4.00276H4.00281H4.00285H4.0029H4.00295H4.003H4.00304H4.00309H4.00314H4.00318H4.00323H4.00327H4.00332H4.00337H4.00341H4.00346H4.0035H4.00355H4.00359H4.00364H4.00368H4.00373H4.00377H4.00381H4.00386H4.0039H4.00394H4.00399H4.00403H4.00407H4.00412H4.00416H4.0042H4.00425H4.00429H4.00433H4.00437H4.00441H4.00446H4.0045H4.00454H4.00458H4.00462H4.00466H4.0047H4.00474H4.00478H4.00482H4.00486H4.0049H4.00494H4.00498H4.00502H4.00506H4.0051H4.00514H4.00518H4.00522H4.00526H4.0053H4.00534H4.00537H4.00541H4.00545H4.00549H4.00553H4.00557H4.0056H4.00564H4.00568H4.00572H4.00575H4.00579H4.00583H4.00586H4.0059H4.00594H4.00597H4.00601H4.00605H4.00608H4.00612H4.00616H4.00619H4.00623H4.00626H4.0063H4.00633H4.00637H4.0064H4.00644H4.00647H4.00651H4.00654H4.00658H4.00661H4.00665H4.00668H4.00672H4.00675H4.00679H4.00682H4.00685H4.00689H4.00692H4.00696H4.00699H4.00702H4.00706H4.00709H4.00712H4.00716H4.00719H4.00722H4.00725H4.00729H4.00732H4.00735H4.00739H4.00742H4.00745H4.00748H4.00752H4.00755H4.00758H4.00761H4.00764H4.00768H4.00771H4.00774H4.00777H4.0078H4.00784H4.00787H4.0079H4.00793H4.00796H4.00799H4.00802H4.00805H4.00809H4.00812H4.00815H4.00818H4.00821H4.00824H4.00827H4.0083H4.00833H4.00836H4.00839H4.00843H4.00846H4.00849H4.00852H4.00855H4.00858H4.00861H4.00864H4.00867H4.0087H4.00873H4.00876H4.00879H4.00882H4.00885H4.00888H4.00891H4.00894H4.00897H4.009H4.00903H4.00906H4.00909H4.00912H4.00915H4.00918H4.00921H4.00924H4.00927H4.00929H4.00932H4.00935H4.00938H4.00941H4.00944H4.00947H4.0095H4.00953H4.00956H4.00959H4.00962H4.00965H4.00968H4.00971H4.00974H4.00977H4.00979H4.00982H4.00985H4.00988H4.00991H4.00994H4.00997H4.01H4.01003H4.01006H4.01009H4.01012H4.01015H4.01018H4.01021H4.01023H4.01026H4.01029H4.01032H4.01035H4.01038H4.01041H4.01044H4.01047H4.0105H4.01053H4.01056H4.01059H4.01062H4.01065H4.01068H4.01071H4.01073H4.01076H4.01079H4.01082H4.01085H4.01088H4.01091H4.01094H4.01097H4.011H4.01103H4.01106H4.01109H4.01112H4.01115H4.01118H4.01121H4.01124H4.01127H4.0113H4.01133H4.01136H4.01139H4.01142H4.01145H4.01148H4.01151H4.01154H4.01157H4.01161H4.01164H4.01167H4.0117H4.01173H4.01176H4.01179H4.01182H4.01185H4.01188H4.01191H4.01195H4.01198H4.01201H4.01204H4.01207H4.0121H4.01213H4.01216H4.0122H4.01223H4.01226H4.01229H4.01232H4.01236H4.01239H4.01242H4.01245H4.01248H4.01252H4.01255H4.01258H4.01261H4.01265H4.01268H4.01271H4.01275H4.01278H4.01281H4.01284H4.01288H4.01291H4.01294H4.01298H4.01301H4.01304H4.01308H4.01311H4.01315H4.01318H4.01321H4.01325H4.01328H4.01332H4.01335H4.01339H4.01342H4.01346H4.01349H4.01353H4.01356H4.0136H4.01363H4.01367H4.0137H4.01374H4.01377H4.01381H4.01384H4.01388H4.01392H4.01395H4.01399H4.01403H4.01406H4.0141H4.01414H4.01417H4.01421H4.01425H4.01428H4.01432H4.01436H4.0144H4.01443H4.01447H4.01451H4.01455H4.01459H4.01463H4.01466H4.0147H4.01474H4.01478H4.01482H4.01486H4.0149H4.01494H4.01498H4.01502H4.01506H4.0151H4.01514H4.01518H4.01522H4.01526H4.0153H4.01534H4.01538H4.01542H4.01546H4.0155H4.01554H4.01559H4.01563H4.01567H4.01571H4.01575H4.0158H4.01584H4.01588H4.01593H4.01597H4.01601H4.01606H4.0161H4.01614H4.01619H4.01623H4.01627H4.01632H4.01636H4.01641H4.01645H4.0165H4.01654H4.01659H4.01663H4.01668H4.01673H4.01677H4.01682H4.01686H4.01691H4.01696H4.017H4.01705H4.0171H4.01715H4.01719H4.01724H4.01729H4.01734H4.01739H4.01743H4.01748H4.01753H4.01758H4.01763H4.01768H4.01773H4.01778H4.01783H4.01788H4.01793H4.01798H4.01803H4.01808H4.01813H4.01819H4.01824H4.01829H4.01834H4.01839H4.01845H4.0185H4.01855H4.0186H4.01866H4.01871H4.01876H4.01882H4.01887H4.01893H4.01898H4.01904H4.01909H4.01915H4.0192H4.01926H4.01931H4.01937H4.01943H4.01948H4.01954H4.0196H4.01965H4.01971H4.01977H4.01983H4.01988H4.01994H4.02H4.42593L4.50933 7.85281L4.88933 6.04281L4.88934 6.04281L4.88974 6.04083C5.0647 5.19034 5.31863 4.46823 5.82071 3.95267C6.30625 3.45408 7.09366 3.08008 8.49 3.08008H11.25H12.75H15.51C16.9063 3.08008 17.6938 3.45408 18.1793 3.95267C18.6814 4.46823 18.9353 5.19034 19.1103 6.04083L19.1107 6.04281L19.4907 7.85281Z"
        fill="#FF6432"
        stroke="#FF6432"
    />
    <path
        d="M9 15.75H6C5.86614 15.75 5.75 15.6339 5.75 15.5C5.75 15.3661 5.86614 15.25 6 15.25H9C9.13386 15.25 9.25 15.3661 9.25 15.5C9.25 15.6339 9.13386 15.75 9 15.75Z"
        fill="#FF6432"
        stroke="#FF6432"
    />
    <path
        d="M18 15.75H15C14.8661 15.75 14.75 15.6339 14.75 15.5C14.75 15.3661 14.8661 15.25 15 15.25H18C18.1339 15.25 18.25 15.3661 18.25 15.5C18.25 15.6339 18.1339 15.75 18 15.75Z"
        fill="#FF6432"
        stroke="#FF6432"
    />
</svg>