<svg width="33" height="32" viewBox="0 0 33 32" fill="none" xmlns="http://www.w3.org/2000/svg">
<path d="M12.5007 13.3333C13.9734 13.3333 15.1673 12.1394 15.1673 10.6667C15.1673 9.19391 13.9734 8 12.5007 8C11.0279 8 9.83398 9.19391 9.83398 10.6667C9.83398 12.1394 11.0279 13.3333 12.5007 13.3333Z" stroke="#3C4EF2" stroke-width="2" stroke-linecap="round" stroke-linejoin="round"/>
<path d="M17.8327 2.66797H12.4993C5.83268 2.66797 3.16602 5.33464 3.16602 12.0013V20.0013C3.16602 26.668 5.83268 29.3346 12.4993 29.3346H20.4993C27.166 29.3346 29.8327 26.668 29.8327 20.0013V13.3346" stroke="#3C4EF2" stroke-width="2" stroke-linecap="round" stroke-linejoin="round"/>
<path d="M21.5 6.66797H28.8333" stroke="#3C4EF2" stroke-width="2" stroke-linecap="round"/>
<path d="M25.166 10.3333V3" stroke="#3C4EF2" stroke-width="2" stroke-linecap="round"/>
<path d="M4.06055 25.2661L10.6339 20.8528C11.6872 20.1461 13.2072 20.2261 14.1539 21.0394L14.5939 21.4261C15.6339 22.3194 17.3139 22.3194 18.3539 21.4261L23.9005 16.6661C24.9405 15.7728 26.6205 15.7728 27.6605 16.6661L29.8339 18.5328" stroke="#3C4EF2" stroke-width="2" stroke-linecap="round" stroke-linejoin="round"/>
</svg>
