<svg width="38" height="38" viewBox="0 0 38 38" fill="none" xmlns="http://www.w3.org/2000/svg">
<path d="M30.4152 10.0704C28.7685 6.74538 25.586 4.29122 21.8968 3.48372C18.0335 2.62872 14.0752 3.54705 11.051 5.98538C8.01099 8.40788 6.28516 12.0337 6.28516 15.9129C6.28516 20.0137 8.73932 24.3046 12.4443 26.7904V28.1045C12.4285 28.5479 12.4127 29.2287 12.951 29.7829C13.5052 30.3529 14.3285 30.4162 14.9777 30.4162H23.1002C23.9552 30.4162 24.6043 30.1787 25.0477 29.7354C25.6493 29.1179 25.6335 28.3262 25.6177 27.8987V26.7904C30.526 23.4812 33.6135 16.4987 30.4152 10.0704Z" fill="#FF6432"/>
<path d="M24.1613 34.8335C24.0663 34.8335 23.9555 34.8176 23.8605 34.786C20.678 33.8835 17.3372 33.8835 14.1547 34.786C13.5688 34.9443 12.9513 34.6118 12.793 34.026C12.6188 33.4401 12.9672 32.8226 13.553 32.6643C17.1313 31.651 20.8997 31.651 24.478 32.6643C25.0638 32.8385 25.4122 33.4401 25.238 34.026C25.0797 34.5168 24.6363 34.8335 24.1613 34.8335Z" fill="#FF6432"/>
</svg>
