<svg width="24" height="25" viewBox="0 0 24 25" fill="none" xmlns="http://www.w3.org/2000/svg">
<path d="M12 14.5C13.1046 14.5 14 13.6046 14 12.5C14 11.3954 13.1046 10.5 12 10.5C10.8954 10.5 10 11.3954 10 12.5C10 13.6046 10.8954 14.5 12 14.5Z" stroke="#FF2D2D" stroke-width="1.5" stroke-linecap="round" stroke-linejoin="round"/>
<path d="M20 18.5C21.26 16.83 22 14.75 22 12.5C22 10.25 21.26 8.17 20 6.5" stroke="#FF2D2D" stroke-width="1.5" stroke-linecap="round" stroke-linejoin="round"/>
<path d="M4 6.5C2.74 8.17 2 10.25 2 12.5C2 14.75 2.74 16.83 4 18.5" stroke="#FF2D2D" stroke-width="1.5" stroke-linecap="round" stroke-linejoin="round"/>
<path d="M16.7998 16.0999C17.5498 15.0999 17.9998 13.8499 17.9998 12.4999C17.9998 11.1499 17.5498 9.8999 16.7998 8.8999" stroke="#FF2D2D" stroke-width="1.5" stroke-linecap="round" stroke-linejoin="round"/>
<path d="M7.20001 8.8999C6.45001 9.8999 6 11.1499 6 12.4999C6 13.8499 6.45001 15.0999 7.20001 16.0999" stroke="#FF2D2D" stroke-width="1.5" stroke-linecap="round" stroke-linejoin="round"/>
</svg>
