<svg width="163" height="155" viewBox="0 0 163 155" fill="none" xmlns="http://www.w3.org/2000/svg">
<path fill-rule="evenodd" clip-rule="evenodd" d="M128.246 56.6572C133.472 59.9334 136.242 65.0152 138.828 70.4281C147.301 88.1933 143.381 106.229 125.314 116.014C97.2561 131.165 53.8714 127.111 30.8497 104.947C25.747 100.047 18.426 94.1506 16.7604 83.2021C15.2092 73.0208 20.1528 64.7072 27.0451 58.3035C34.0938 51.7276 43.1766 47.1246 49.777 44.5913C78.6109 33.5587 123.723 34.088 149.494 61.4785C150.031 62.0288 150.858 62.0598 151.375 61.5665C151.891 61.0732 151.926 60.2543 151.435 59.7296C124.906 31.5368 78.4652 30.7952 48.7892 42.1483C40.5697 45.3132 28.6243 51.5878 21.0846 60.771C15.9469 67.0562 12.8371 74.6772 14.153 83.552C15.9083 95.2038 23.6149 101.597 29.0287 106.805C52.7937 129.689 97.624 133.961 126.572 118.296C146.008 107.788 150.305 88.4296 141.19 69.3302C138.426 63.4804 135.321 58.025 129.648 54.4694C129.023 54.0779 128.203 54.2512 127.854 54.8762C127.459 55.4756 127.666 56.2913 128.246 56.6572Z" fill="#FF6432"/>
</svg>
