<svg width="150" height="60" viewBox="0 0 150 60" fill="none" xmlns="http://www.w3.org/2000/svg">
<path d="M51.7565 27.9762C53.6318 39.8146 44.4041 49.6597 33.4615 51.2565C27.6004 52.1119 22.8061 51.2119 18.3796 48.5891C13.2554 45.5525 9.40483 39.9625 8.27194 32.8095C6.39665 20.9711 14.3999 10.5896 26.7343 8.79004C33.8831 7.74687 38.0739 9.03549 42.2127 11.7908C47.1659 15.0886 50.7347 21.5271 51.7565 27.9767V27.9762Z" fill="#FF6432"/>
<path d="M49.8829 27.5196C50.5491 31.7262 50.2516 35.957 48.3456 39.5268C45.508 44.8412 39.7204 48.781 33.1954 49.733C27.4333 50.574 21.1455 49.0757 16.9212 45.7258C13.1488 42.7344 11.1656 38.2214 10.3837 33.2831C9.64969 28.6502 10.2285 23.498 12.563 19.66C15.5038 14.8258 20.9595 11.7595 27.0401 10.8721C33.419 9.94142 39.5484 11.1678 43.8982 15.3074C46.9863 18.2468 49.1949 23.1726 49.8834 27.5187L49.8829 27.5196Z" fill="#FDF8E1"/>
<path d="M19.2869 16.3195C18.2623 16.9982 17.3823 17.9865 17.2564 19.2165C17.1439 20.3178 17.6655 21.2713 18.5617 21.9337C20.2111 23.1526 22.0557 24.1581 23.779 25.2808C25.2503 26.2389 27.3036 27.9292 28.7717 28.8919C28.7717 28.8919 28.9595 28.8682 28.9307 28.778C28.4398 27.2393 27.7513 24.8852 27.2437 23.3511C26.9057 22.3289 26.564 21.308 26.2126 20.2899C25.731 18.8949 24.9212 17.2329 23.7869 16.1772C22.9143 15.3651 21.7396 15.2326 20.6234 15.631C20.1483 15.8007 19.703 16.0438 19.2865 16.3199L19.2869 16.3195Z" fill="#FF6432"/>
<path d="M13.2883 24.7688C12.5836 26.5167 12.4511 28.8913 13.4046 30.5197C14.047 31.6168 15.145 31.6931 16.3174 31.5485C18.1937 31.317 20.5915 30.946 21.3966 30.8284C23.3751 30.5397 25.3531 30.251 27.3316 29.9623C27.505 29.9372 27.6789 29.9117 27.8523 29.8866C27.9839 29.8675 28.0224 29.7029 27.9118 29.6318C27.9118 29.6318 18.4112 23.482 18.4024 23.4765C17.3555 22.7991 15.8177 22.2854 14.6397 22.9632C14.1028 23.2719 13.7421 23.7995 13.4766 24.3434C13.4097 24.4806 13.3464 24.6228 13.2874 24.7693L13.2883 24.7688Z" fill="#FF6432"/>
<path d="M42.2271 17.5394C42.0267 16.8444 41.4786 16.2452 40.825 15.8701C39.2175 14.9473 37.0759 14.8878 35.8584 16.4061C35.2433 17.1726 35.0379 18.1953 34.7427 19.1005C34.3206 20.3951 33.9003 21.6903 33.4852 22.9868C32.919 24.7556 32.3528 26.5244 31.7865 28.2928L31.7126 28.5299C31.7019 28.5643 31.7442 28.5908 31.7726 28.5676L35.2113 25.7779C36.1884 24.9848 39.8646 21.7702 40.6712 20.9065C41.3206 20.211 42.1072 19.4115 42.2778 18.4589C42.3345 18.1419 42.3117 17.8323 42.2271 17.5399V17.5394Z" fill="#FF6432"/>
<path d="M46.9512 24.8738C46.9149 24.5381 46.8275 24.2044 46.7234 23.8957C46.3724 22.852 45.73 21.2729 44.472 20.9879C43.4893 20.7652 42.3894 21.2441 41.7028 21.906C40.2026 23.3527 34.3671 27.7095 32.7257 28.986C32.5881 29.0929 32.6838 29.3063 32.8595 29.2835C34.9687 29.0121 42.3727 27.9159 44.578 27.4431C45.4594 27.2539 46.4119 26.9085 46.7964 26.0564C46.9637 25.685 46.9953 25.2777 46.9516 24.8738H46.9512Z" fill="#FF6432"/>
<path d="M29.9031 12.879C28.7195 12.8618 27.3993 13.039 26.4853 13.6893C26.3301 13.8 26.1878 13.9273 26.0646 14.071C25.6574 14.5461 25.563 15.2731 25.6063 15.8677C25.6639 16.665 26.0363 17.4064 26.3259 18.1465C27.0358 19.9581 27.7461 21.7697 28.4559 23.5813C29.0435 25.0801 29.6855 27.0269 30.2731 28.5257C30.2731 28.5262 30.3628 28.6554 30.3633 28.6563C30.4112 28.7749 30.5004 28.6377 30.5367 28.5155C31.1057 26.6118 33.5202 17.829 33.6067 16.3158C33.6518 15.5242 33.5718 14.653 33.074 13.9906C32.531 13.2686 31.5729 12.9925 30.6869 12.9181C30.4372 12.8972 30.1736 12.8828 29.9031 12.879Z" fill="#FF6432"/>
<path d="M13.6107 37.2093C14.4768 39.5593 16.7407 40.3426 17.9517 39.6016C19.1627 38.8606 28.3383 31.2953 28.3383 31.2953C28.4234 31.2265 28.3611 31.0935 28.2509 31.1098C24.2795 31.6857 16.4255 32.3868 15.0388 32.7745C13.6526 33.1626 12.7442 34.8594 13.6107 37.2093Z" fill="#FF6432"/>
<path d="M28.9105 46.887C29.7003 46.9437 30.4943 46.9544 31.2841 46.9172C31.9066 46.8879 32.2385 46.8684 32.8512 46.7792C33.866 46.6313 35.0268 45.8657 33.9455 43.0881C32.9809 40.6089 31.0768 33.919 30.6784 32.509C30.657 32.4332 30.5455 32.4314 30.5218 32.5067C30.0653 33.9492 27.8353 40.9706 26.9581 43.3572C25.9786 46.0223 27.9087 46.8154 28.9096 46.8875L28.9105 46.887Z" fill="#FF6432"/>
<path d="M41.0722 43.9344C41.6217 43.5727 42.1842 43.2143 42.6239 42.7485C43.5802 41.7356 43.5727 40.4665 42.7708 39.3726C41.9527 38.2565 40.6761 37.6214 39.5237 36.8795C38.3155 36.1018 37.1138 35.3138 35.9149 34.5231C35.1786 34.0373 34.4431 33.5515 33.7068 33.0657C33.2861 32.7882 32.9179 32.4149 32.4414 32.2196C31.1969 31.7101 31.9737 33.3214 32.1039 33.7412C32.7529 35.8382 33.4125 37.932 34.1028 40.0165C34.3111 40.6454 34.5226 41.2735 34.7406 41.8992C36.4635 46.8426 40.5223 44.2961 41.0722 43.9344Z" fill="#FF6432"/>
<path d="M44.3666 28.8569C44.3666 28.8569 35.2495 30.1744 33.0061 30.5007C32.6388 30.5542 32.5124 30.7699 33.0135 31.1092C33.0451 31.1306 39.4245 35.5088 41.9432 37.067C42.7674 37.577 43.7529 37.8991 44.7375 37.7123C46.9959 37.2837 47.5733 34.7101 47.6244 32.8381C47.683 30.7006 47.1721 28.4497 44.3838 28.8541C44.3782 28.8551 44.3722 28.856 44.3666 28.8565V28.8569Z" fill="#FF6432"/>
<path d="M21.327 45.2453C21.9657 45.5424 22.7379 45.8073 23.4333 45.56C24.1102 45.3192 24.5978 44.7339 24.9604 44.1594C26.1593 42.258 28.8491 33.7132 29.2545 32.2308C29.2735 32.1606 29.1875 32.1076 29.1294 32.1545C27.9398 33.1126 21.0244 38.6032 19.1588 40.0625C18.4727 40.5994 17.9948 41.359 18.1333 42.2343C18.3844 43.8191 20.5906 44.9027 21.327 45.2453Z" fill="#FF6432"/>
<path d="M15.9941 24.964C16.8155 25.0425 17.5574 25.4 18.2324 25.8407C18.4593 25.9969 18.6801 26.1675 18.8832 26.3874C18.3049 26.4669 17.7587 26.4055 17.2069 26.294C16.6779 26.175 16.1647 26.0188 15.7123 25.7152C15.5185 25.5804 15.4753 25.3205 15.6157 25.1346C15.7054 25.0156 15.8518 24.9561 15.9941 24.9635V24.964Z" fill="#F89959"/>
<path d="M43.9087 23.0487C43.289 23.5722 42.5108 23.8492 41.7145 24.0231C41.4412 24.0761 41.1599 24.1147 40.8545 24.1072C41.1878 23.647 41.6067 23.3053 42.0683 22.9934C42.5197 22.7028 42.9882 22.449 43.528 22.3379C43.7627 22.2938 43.9905 22.4407 44.0365 22.6657C44.0658 22.8098 44.0119 22.9534 43.9087 23.0478V23.0487Z" fill="#F89959"/>
<path d="M44.7311 33.6333C43.9059 33.6216 43.1352 33.3251 42.4239 32.9406C42.1845 32.8035 41.9488 32.651 41.7275 32.4483C42.2965 32.3223 42.846 32.3391 43.4062 32.406C43.944 32.4818 44.4689 32.5961 44.9463 32.8616C45.1513 32.9801 45.2169 33.2358 45.0932 33.4324C45.0142 33.5584 44.8733 33.6295 44.7311 33.6333Z" fill="#F89959"/>
<path d="M19.602 19.0867C20.3016 19.507 20.8009 20.1438 21.2016 20.8267C21.3327 21.0633 21.4517 21.3107 21.5317 21.5938C20.9766 21.4185 20.5159 21.1308 20.0729 20.7951C19.6541 20.4627 19.2668 20.1043 19.0019 19.6394C18.8907 19.4363 18.9721 19.1848 19.1841 19.0783C19.3198 19.01 19.4783 19.0188 19.6025 19.0867H19.602Z" fill="#F89959"/>
<path d="M36.0309 21.9253C35.7432 22.6677 35.1942 23.2656 34.5787 23.7802C34.3639 23.9508 34.1356 24.113 33.8623 24.245C33.9288 23.6881 34.1296 23.1968 34.3825 22.7124C34.6372 22.2512 34.9245 21.8152 35.3452 21.4721C35.5303 21.3266 35.8031 21.3526 35.9547 21.5302C36.0518 21.6441 36.0746 21.7947 36.0305 21.9249L36.0309 21.9253Z" fill="#F89959"/>
<path d="M40.3381 26.5687C39.5845 26.8914 38.7552 26.9337 37.9412 26.8723C37.6637 26.8449 37.3834 26.8016 37.0938 26.7068C37.5549 26.3623 38.0607 26.1559 38.5981 25.9904C39.1192 25.8421 39.6454 25.7338 40.1949 25.7822C40.4329 25.8073 40.6045 26.0123 40.5784 26.2405C40.5617 26.3865 40.4655 26.5078 40.3381 26.5692V26.5687Z" fill="#F89959"/>
<path d="M40.6978 34.9645C39.9052 34.7432 39.2441 34.2612 38.6644 33.7094C38.4715 33.516 38.2865 33.3091 38.1289 33.0576C38.7123 33.0809 39.2376 33.2371 39.7592 33.4439C40.2566 33.654 40.7313 33.8976 41.118 34.2751C41.2826 34.4415 41.2756 34.7047 41.1022 34.8627C40.9911 34.9641 40.8359 34.9966 40.6973 34.9641L40.6978 34.9645Z" fill="#F89959"/>
<path d="M15.3207 34.5072C16.0603 34.1557 16.8868 34.0814 17.7027 34.1116C17.9811 34.1283 18.2628 34.1608 18.5562 34.2441C18.1099 34.6057 17.6129 34.8317 17.083 35.0181C16.5684 35.1864 16.0472 35.3151 15.4964 35.2882C15.2579 35.2724 15.0775 35.0743 15.0938 34.8451C15.1045 34.6987 15.1956 34.5737 15.3202 34.5076L15.3207 34.5072Z" fill="#F89959"/>
<path d="M28.2515 15.323C28.5639 16.0561 28.5816 16.8529 28.4919 17.6316C28.4542 17.897 28.4003 18.1643 28.2929 18.439C27.9489 17.9858 27.7499 17.494 27.5942 16.9733C27.4561 16.4684 27.3599 15.9603 27.4273 15.435C27.4608 15.2077 27.6797 15.0492 27.9168 15.0813C28.0684 15.1017 28.192 15.198 28.2515 15.3225V15.323Z" fill="#F89959"/>
<path d="M22.3268 43.4358C22.662 42.712 23.2486 42.1481 23.8967 41.6712C24.1221 41.5136 24.3606 41.3658 24.6418 41.25C24.5391 41.8018 24.3071 42.2802 24.0231 42.7483C23.7391 43.1932 23.4239 43.6115 22.9818 43.9286C22.7879 44.0629 22.5169 44.0206 22.377 43.8342C22.2873 43.7148 22.2743 43.5627 22.3268 43.4358Z" fill="#F89959"/>
<path d="M39.3474 42.0008C38.6184 41.6294 38.0731 41.0283 37.6231 40.3747C37.4749 40.1478 37.3382 39.9094 37.2373 39.6318C37.804 39.7685 38.2847 40.0242 38.7514 40.3287C39.1939 40.6318 39.6068 40.9628 39.9052 41.4081C40.0312 41.6034 39.9684 41.8595 39.7648 41.9804C39.6346 42.0575 39.4757 42.0594 39.3469 42.0008H39.3474Z" fill="#F89959"/>
<path d="M14.575 28.7047C15.3388 28.4049 16.1691 28.3877 16.9808 28.4737C17.2574 28.5095 17.5358 28.5611 17.8222 28.6643C17.3503 28.9944 16.8376 29.1859 16.2951 29.3351C15.7693 29.4676 15.2398 29.5601 14.6922 29.4955C14.4551 29.4634 14.2905 29.2533 14.3235 29.026C14.3449 28.8805 14.4449 28.7619 14.5746 28.7047H14.575Z" fill="#F89959"/>
<path d="M20.2219 27.874C21.0359 27.8029 21.8457 27.9693 22.6127 28.2129C22.8726 28.3012 23.1306 28.4025 23.384 28.5457C22.8461 28.7042 22.3027 28.7438 21.7402 28.7442C21.1977 28.7349 20.6617 28.6931 20.1457 28.5234C19.9235 28.4467 19.8138 28.2449 19.9012 28.0729C19.9569 27.9628 20.0829 27.8912 20.2224 27.874H20.2219Z" fill="#F89959"/>
<path d="M37.9497 17.808C37.609 18.5207 37.0553 19.1125 36.4533 19.6294C36.2441 19.8014 36.0242 19.966 35.7686 20.1054C35.8931 19.5792 36.1279 19.1069 36.4078 18.6383C36.6862 18.1916 36.9907 17.7662 37.4012 17.4208C37.5811 17.2739 37.8177 17.2832 37.9302 17.4413C38.0023 17.5426 38.0041 17.683 37.9502 17.8076L37.9497 17.808Z" fill="#F89959"/>
<path d="M45.2945 26.0159C44.5228 26.2735 43.6944 26.2995 42.8888 26.2405C42.6145 26.2149 42.3384 26.1763 42.0566 26.0959C42.5387 25.8179 43.0561 25.6533 43.6023 25.5227C44.1309 25.4065 44.6618 25.3228 45.2052 25.3679C45.44 25.3907 45.5971 25.5613 45.5557 25.7486C45.5292 25.8686 45.4251 25.9671 45.294 26.0159H45.2945Z" fill="#F89959"/>
<path d="M45.3757 31.6965C44.5696 31.8262 43.7491 31.7188 42.9649 31.531C42.6989 31.4617 42.4335 31.3794 42.1699 31.2548C42.6938 31.0582 43.2326 30.9792 43.7937 30.9383C44.3353 30.9085 44.8731 30.9113 45.4012 31.0433C45.629 31.1038 45.7541 31.2967 45.6806 31.4747C45.6337 31.5886 45.5137 31.6695 45.3761 31.6965H45.3757Z" fill="#F89959"/>
<path d="M24.0397 22.3665C24.6319 22.9071 25.0354 23.6012 25.3502 24.3157C25.452 24.5612 25.5431 24.8145 25.5975 25.0916C25.1191 24.8075 24.7296 24.4417 24.3586 24.0359C24.0085 23.6384 23.6878 23.2237 23.4809 22.7393C23.3944 22.5283 23.4804 22.3163 23.6724 22.2656C23.7956 22.2331 23.9346 22.2768 24.0401 22.366L24.0397 22.3665Z" fill="#F89959"/>
<path d="M31.5744 16.3391C31.6888 17.1159 31.5558 17.9006 31.3396 18.6476C31.2606 18.901 31.1681 19.1534 31.0314 19.4031C30.8399 18.8954 30.772 18.3762 30.7437 17.8369C30.7265 17.3167 30.7437 16.8007 30.8948 16.2972C30.9636 16.0806 31.1681 15.9653 31.3513 16.0406C31.4689 16.0885 31.5498 16.2057 31.5744 16.3386V16.3391Z" fill="#F89959"/>
<path d="M22.9073 17.9287C23.4731 18.4944 23.8431 19.2061 24.1234 19.9332C24.2136 20.1833 24.2922 20.4399 24.3336 20.7193C23.8691 20.4148 23.4977 20.0317 23.1463 19.6101C22.8153 19.1978 22.515 18.7692 22.3309 18.2764C22.2546 18.0621 22.3504 17.8538 22.5452 17.812C22.6698 17.785 22.8065 17.8348 22.9078 17.9287H22.9073Z" fill="#F89959"/>
<path d="M30.0626 20.7373C30.2118 21.5085 30.1146 22.2979 29.9333 23.0537C29.8659 23.3099 29.785 23.566 29.6595 23.8217C29.4452 23.3224 29.3536 22.8069 29.3006 22.269C29.2597 21.7498 29.2532 21.2338 29.3815 20.7247C29.4406 20.5053 29.6395 20.3817 29.8259 20.4491C29.9454 20.4923 30.0314 20.6057 30.0621 20.7373H30.0626Z" fill="#F89959"/>
<path d="M39.5807 20.6218C39.1442 21.2847 38.5138 21.8007 37.8453 22.2363C37.6143 22.3804 37.3735 22.5152 37.1006 22.6207C37.2972 22.1149 37.5947 21.6766 37.9369 21.248C38.2749 20.8407 38.6356 20.4577 39.0898 20.1681C39.2883 20.0453 39.5216 20.0849 39.6109 20.2559C39.6681 20.3656 39.6509 20.5051 39.5797 20.6218H39.5807Z" fill="#F89959"/>
<path d="M20.5231 34.6542C21.1929 34.2051 21.9828 33.9643 22.7749 33.8114C23.0459 33.7644 23.3225 33.7296 23.6163 33.7337C23.2309 34.127 22.7795 34.4204 22.291 34.6881C21.8149 34.9378 21.3278 35.1567 20.7922 35.2548C20.5598 35.2938 20.3604 35.1711 20.3473 34.9801C20.339 34.8578 20.411 34.7355 20.5235 34.6546L20.5231 34.6542Z" fill="#F89959"/>
<path d="M16.3649 37.3153C17.0347 36.8663 17.8246 36.6254 18.6167 36.4725C18.8877 36.4256 19.1643 36.3907 19.4581 36.3949C19.0727 36.7882 18.6213 37.0815 18.1328 37.3493C17.6567 37.5989 17.1695 37.8178 16.634 37.9159C16.4016 37.955 16.2022 37.8323 16.1891 37.6412C16.1808 37.5189 16.2528 37.3967 16.3653 37.3158L16.3649 37.3153Z" fill="#F89959"/>
<path d="M21.6682 38.9582C22.1763 38.3441 22.861 37.8964 23.5741 37.532C23.8201 37.4125 24.0743 37.3033 24.3575 37.2266C24.1055 37.7091 23.7601 38.114 23.3719 38.505C22.9903 38.875 22.5891 39.2185 22.1047 39.4598C21.8936 39.5611 21.6659 39.4979 21.5961 39.3185C21.5515 39.2037 21.5845 39.067 21.6677 38.9582H21.6682Z" fill="#F89959"/>
<path d="M24.2818 38.7773C24.6392 38.0721 25.2059 37.4924 25.82 36.988C26.0329 36.8202 26.2565 36.6603 26.5155 36.5264C26.3788 37.0498 26.1333 37.517 25.8428 37.9796C25.5541 38.4203 25.2399 38.8391 24.8215 39.1757C24.6383 39.3188 24.4017 39.3044 24.2934 39.1436C24.2241 39.0409 24.225 38.9005 24.2818 38.7768V38.7773Z" fill="#F89959"/>
<path d="M39.2756 31.9497C38.4653 32.0496 37.649 31.9125 36.8732 31.6963C36.61 31.6173 36.3483 31.5252 36.0898 31.3909C36.6212 31.2133 37.1628 31.1543 37.7248 31.1338C38.2673 31.124 38.8047 31.1464 39.3267 31.2979C39.5517 31.3667 39.6689 31.5643 39.5885 31.7395C39.5369 31.8516 39.4141 31.9278 39.2751 31.9497H39.2756Z" fill="#F89959"/>
<path d="M45.3501 35.8557C44.5402 35.7525 43.7881 35.4183 43.0964 35.0176C42.8635 34.8762 42.6347 34.7228 42.4209 34.5294C42.982 34.489 43.5212 34.5657 44.0698 34.6847C44.5965 34.8088 45.1097 34.9636 45.5741 35.2384C45.7731 35.3602 45.8335 35.5801 45.7089 35.7297C45.629 35.8255 45.49 35.8687 45.3501 35.8557Z" fill="#F89959"/>
<path d="M29.0952 39.9266C29.1343 39.1432 29.4183 38.3962 29.7758 37.7008C29.9027 37.466 30.0431 37.235 30.2258 37.0137C30.3146 37.5469 30.2807 38.0689 30.203 38.6035C30.1184 39.1177 30.0013 39.6216 29.7544 40.0888C29.6447 40.2896 29.4211 40.3659 29.2556 40.2589C29.1496 40.1906 29.0929 40.0614 29.0948 39.9261L29.0952 39.9266Z" fill="#F89959"/>
<path d="M38.2401 38.4324C37.6125 37.9299 37.1625 37.2623 36.8004 36.5692C36.6818 36.3303 36.574 36.0834 36.501 35.8105C36.9975 36.0639 37.4112 36.4047 37.8091 36.7868C38.1852 37.1615 38.5334 37.5552 38.7733 38.0257C38.8737 38.2307 38.8026 38.4478 38.6138 38.5101C38.493 38.55 38.3512 38.5152 38.2401 38.4324Z" fill="#F89959"/>
<path d="M34.5002 37.8323C34.0423 37.1828 33.8024 36.4218 33.6541 35.6595C33.609 35.3987 33.5769 35.1328 33.5853 34.8506C33.9898 35.2257 34.2887 35.6636 34.5606 36.136C34.814 36.5962 35.0352 37.0671 35.1296 37.5826C35.1673 37.8062 35.0362 37.9959 34.8367 38.0057C34.7094 38.0122 34.5829 37.9411 34.5002 37.8318V37.8323Z" fill="#F89959"/>
<path d="M28.5279 44.6433C28.5669 43.86 28.8509 43.113 29.2084 42.4175C29.3353 42.1828 29.4757 41.9513 29.6584 41.7305C29.7472 42.2637 29.7133 42.7857 29.6356 43.3203C29.551 43.8345 29.4339 44.3384 29.187 44.8056C29.0773 45.0064 28.8542 45.0827 28.6882 44.9757C28.5822 44.9074 28.5255 44.7782 28.5274 44.6429L28.5279 44.6433Z" fill="#F89959"/>
<path d="M31.3198 43.7366C31.1636 42.9668 31.2534 42.1765 31.4282 41.4192C31.4932 41.1622 31.5718 40.9056 31.695 40.6494C31.9139 41.1468 32.0102 41.6619 32.0678 42.1988C32.1134 42.7176 32.1245 43.2336 32.0009 43.7436C31.9442 43.9635 31.7461 44.0885 31.5588 44.023C31.4388 43.9811 31.3519 43.8682 31.3198 43.7366Z" fill="#F89959"/>
<path d="M37.3458 43.3695C36.7475 42.8353 36.3361 42.1455 36.013 41.4342C35.9084 41.1897 35.8145 40.9377 35.7568 40.6611C36.2384 40.9401 36.6322 41.3017 37.0078 41.7038C37.3625 42.0976 37.6879 42.509 37.9008 42.9911C37.9896 43.2012 37.9064 43.4141 37.7144 43.4666C37.5917 43.5006 37.4522 43.4583 37.3458 43.3699V43.3695Z" fill="#F89959"/>
<path d="M19.6755 42.1462C20.1618 41.5158 20.8298 41.0458 21.5299 40.6581C21.7712 40.5308 22.0217 40.4131 22.3016 40.3271C22.0668 40.8176 21.7363 41.2336 21.3625 41.6372C20.9944 42.0197 20.6053 42.3758 20.1302 42.6329C19.9228 42.7412 19.6932 42.6854 19.6169 42.5083C19.5681 42.3949 19.596 42.2573 19.6755 42.1457V42.1462Z" fill="#F89959"/>
<path d="M67.4609 16.1611L69.2422 16.2783C69.6797 18.2158 70.5781 20.958 71.9375 24.5049C73.2969 28.0361 74.1953 30.6768 74.6328 32.4268C74.6328 32.8799 74.5547 33.2158 74.3984 33.4346C74.2422 33.6689 74.0469 33.7861 73.8125 33.7861C73.6094 33.7861 73.4141 33.7002 73.2266 33.5283C73.0547 33.3721 72.9375 33.1455 72.875 32.8486C72.7344 32.1611 72.2812 30.7861 71.5156 28.7236C68.2969 28.3174 66.2734 28.0674 65.4453 27.9736C65.2422 28.5361 64.9922 29.4502 64.6953 30.7158C64.3984 31.9814 64.1641 32.8564 63.9922 33.3408C63.7578 33.6221 63.4922 33.7627 63.1953 33.7627C62.8672 33.7627 62.5859 33.6143 62.3516 33.3174C62.1172 33.0361 62 32.6846 62 32.2627C62.5 30.4346 63.4062 27.7471 64.7188 24.2002C66.0312 20.6533 66.9453 17.9736 67.4609 16.1611ZM68.2812 18.5283C67.9688 20.4189 67.1016 23.1924 65.6797 26.8486H68.3047C69.4922 26.8486 70.4844 26.8877 71.2812 26.9658C69.6719 23.5127 68.6719 20.7002 68.2812 18.5283Z" fill="white"/>
<path d="M78.8206 21.9971C79.1956 21.7002 79.6644 21.458 80.2269 21.2705C80.805 21.0674 81.3128 20.9658 81.7503 20.9658C84.6566 20.9658 86.1097 22.6455 86.1097 26.0049C86.1097 26.7236 86.055 27.4893 85.9456 28.3018C85.8363 29.0986 85.6409 29.9736 85.3597 30.9268C85.0941 31.8799 84.6644 32.6611 84.0706 33.2705C83.4925 33.8955 82.7894 34.208 81.9613 34.208C81.0706 34.208 80.3128 33.9736 79.6878 33.5049C79.0628 33.0361 78.5706 32.3486 78.2113 31.4424C77.8675 30.5361 77.6175 29.5205 77.4613 28.3955C77.3206 27.2549 77.2503 25.9268 77.2503 24.4111C77.2503 22.8799 77.4378 21.5127 77.8128 20.3096C78.2034 19.1064 78.7894 18.0518 79.5706 17.1455C80.3519 16.2393 81.2269 15.458 82.1956 14.8018C83.1644 14.1455 84.3363 13.4971 85.7113 12.8564C85.805 12.9814 85.9066 13.0908 86.0159 13.1846C86.1409 13.2627 86.2503 13.3877 86.3441 13.5596C86.4534 13.7314 86.6175 14.0674 86.8363 14.5674C86.5394 14.7393 86.0628 14.9971 85.4066 15.3408C84.7503 15.6846 84.2034 15.9814 83.7659 16.2314C83.3284 16.4658 82.805 16.8018 82.1956 17.2393C81.6019 17.6611 81.1019 18.083 80.6956 18.5049C80.305 18.9111 79.93 19.4268 79.5706 20.0518C79.2269 20.6611 78.9769 21.3096 78.8206 21.9971ZM84.305 25.8643C84.305 24.708 84.0394 23.8486 83.5081 23.2861C82.9769 22.708 82.2659 22.4189 81.3753 22.4189C80.5472 22.4189 79.8753 22.7783 79.3597 23.4971C78.8441 24.2002 78.5863 25.0596 78.5863 26.0752C78.5863 26.6846 78.6331 27.333 78.7269 28.0205C78.8363 28.708 78.9925 29.4033 79.1956 30.1064C79.4144 30.7939 79.7191 31.3643 80.1097 31.8174C80.5159 32.2705 80.9691 32.4971 81.4691 32.4971C83.3597 32.4971 84.305 30.2861 84.305 25.8643Z" fill="white"/>
<path d="M89.9928 33.7393L88.985 33.2002C89.3913 32.1846 90.4538 30.2158 92.1725 27.2939C91.2663 26.0596 90.235 24.0049 89.0788 21.1299H90.11C90.6881 22.3486 91.6647 23.9346 93.0397 25.8877C93.2741 25.5596 93.5788 25.0518 93.9538 24.3643C94.3444 23.6768 94.7194 23.083 95.0788 22.583C95.4538 22.083 95.8756 21.6455 96.3444 21.2705C96.9069 21.583 97.1881 21.9502 97.1881 22.3721C97.1881 22.6064 97.1334 22.833 97.0241 23.0518C96.6022 23.5674 96.0631 24.3799 95.4069 25.4893C94.7506 26.5986 94.3444 27.2705 94.1881 27.5049C95.8444 29.8174 96.9616 31.5596 97.5397 32.7314C97.5397 33.3252 97.2741 33.6221 96.7428 33.6221C96.2116 33.6221 95.8053 33.3643 95.5241 32.8486C95.2428 31.9111 94.5006 30.583 93.2975 28.8643C93.0319 29.3018 92.485 30.0986 91.6569 31.2549C90.8444 32.3955 90.2897 33.2236 89.9928 33.7393Z" fill="white"/>
<path d="M101.001 23.0283L100.532 21.833C100.938 21.4268 101.454 21.1064 102.079 20.8721C102.704 20.6221 103.321 20.4971 103.931 20.4971C106.571 20.4971 107.892 22.7783 107.892 27.3408C107.892 27.9658 107.853 28.8877 107.774 30.1064C107.712 31.3252 107.681 32.2393 107.681 32.8486C107.556 33.333 107.313 33.5752 106.954 33.5752C106.673 33.5752 106.415 33.4346 106.181 33.1533C105.946 32.8721 105.829 32.5596 105.829 32.2158C105.829 32.1064 105.837 32.0283 105.853 31.9814C104.884 32.9189 103.853 33.3877 102.759 33.3877C101.931 33.3877 101.204 33.0908 100.579 32.4971C99.9697 31.8877 99.665 31.1533 99.665 30.2939C99.665 28.8408 100.228 27.5283 101.353 26.3564C102.493 25.1846 103.782 24.5986 105.22 24.5986C105.282 24.5986 105.345 24.6064 105.407 24.6221C105.47 24.6221 105.54 24.6299 105.618 24.6455C105.712 24.6611 105.782 24.6689 105.829 24.6689C105.704 22.8408 104.978 21.9268 103.649 21.9268C102.868 21.9268 101.985 22.2939 101.001 23.0283ZM105.899 30.3643C105.931 29.2705 105.946 28.4424 105.946 27.8799C105.946 27.4111 105.931 26.7549 105.899 25.9111H105.712C104.603 25.9268 103.587 26.3408 102.665 27.1533C101.759 27.9658 101.306 28.9502 101.306 30.1064C101.306 30.6064 101.454 31.0049 101.751 31.3018C102.063 31.5986 102.438 31.7471 102.876 31.7471C103.563 31.7471 104.571 31.2861 105.899 30.3643Z" fill="white"/>
<path d="M112.853 27.3643L112.759 26.0518C112.806 26.0518 112.876 26.0596 112.97 26.0752C113.079 26.0752 113.158 26.0752 113.204 26.0752C114.783 26.0752 115.572 25.3877 115.572 24.0127C115.4 22.8096 114.736 22.208 113.579 22.208C113.142 22.208 112.501 22.333 111.658 22.583L111.236 21.9033C111.892 21.2939 112.829 20.9893 114.048 20.9893C114.908 20.9893 115.626 21.208 116.204 21.6455C116.783 22.083 117.072 22.7236 117.072 23.5674C117.072 24.083 116.97 24.5908 116.767 25.0908C116.564 25.5752 116.298 25.9424 115.97 26.1924C116.564 26.3174 117.025 26.7236 117.353 27.4111C117.697 28.083 117.868 28.8408 117.868 29.6846C117.868 30.7783 117.517 31.7314 116.814 32.5439C116.111 33.3564 115.204 33.7627 114.095 33.7627C113.548 33.7627 112.892 33.6064 112.126 33.2939C111.361 32.9814 110.978 32.5908 110.978 32.1221C110.978 31.7939 111.189 31.6299 111.611 31.6299C111.892 31.6299 112.259 31.7627 112.712 32.0283C113.165 32.2783 113.54 32.4033 113.837 32.4033C114.493 32.4033 115.072 32.1143 115.572 31.5361C116.072 30.958 116.322 30.3174 116.322 29.6143C116.322 28.8643 116.056 28.3018 115.525 27.9268C115.009 27.5361 114.345 27.3408 113.533 27.3408C113.22 27.3408 112.993 27.3486 112.853 27.3643Z" fill="white"/>
<path d="M123.533 31.208C123.533 31.4736 123.548 31.8252 123.58 32.2627C123.439 32.7471 123.166 32.9893 122.759 32.9893C122.478 32.9893 122.205 32.8799 121.939 32.6611C121.689 32.4268 121.533 32.1455 121.47 31.8174C121.517 30.5518 121.572 28.7002 121.634 26.2627C121.713 23.8252 121.767 22.1768 121.798 21.3174L122.877 21.1299C123.064 22.1299 123.181 23.458 123.228 25.1143C123.275 26.7705 123.338 28.0049 123.416 28.8174C123.713 28.3799 124.556 27.2393 125.947 25.3955C127.338 23.5518 128.283 22.1768 128.783 21.2705C129.127 21.208 129.345 21.1768 129.439 21.1768C129.736 21.1768 129.939 21.3096 130.048 21.5752C130.173 21.8408 130.252 22.3408 130.283 23.0752L130.728 32.7314C130.588 33.2002 130.314 33.4346 129.908 33.4346C129.627 33.4346 129.353 33.3252 129.088 33.1064C128.838 32.8721 128.681 32.5908 128.619 32.2627C128.634 31.7471 128.673 30.4893 128.736 28.4893C128.814 26.4736 128.877 25.0439 128.923 24.2002C126.252 27.2471 124.455 29.583 123.533 31.208Z" fill="white"/>
<path d="M142.369 20.9893L142.721 33.5752C142.564 34.0439 142.299 34.2783 141.924 34.2783C141.658 34.2783 141.393 34.1689 141.127 33.9502C140.877 33.7314 140.721 33.4658 140.658 33.1533L140.893 28.0674C140.236 28.4893 139.557 28.708 138.853 28.7236C138.26 30.6768 137.51 32.1064 136.603 33.0127C135.713 33.9189 134.283 34.6455 132.314 35.1924L131.939 34.1846C134.861 33.4502 136.525 31.5205 136.932 28.3955C136.182 28.083 135.557 27.6064 135.057 26.9658C134.572 26.3252 134.33 25.5908 134.33 24.7627C134.33 23.1064 134.752 22.0049 135.596 21.458C136.439 20.9111 137.775 20.6377 139.603 20.6377C140.557 20.6377 141.478 20.7549 142.369 20.9893ZM141.08 26.0986L140.963 22.3955C140.416 22.2236 139.611 22.1377 138.549 22.1377C137.799 22.1377 137.158 22.3096 136.627 22.6533C136.096 22.9814 135.83 23.5205 135.83 24.2705C135.83 25.1143 136.166 25.8408 136.838 26.4502C137.51 27.0439 138.244 27.3408 139.041 27.3408C139.978 27.3408 140.658 26.9268 141.08 26.0986Z" fill="white"/>
<path d="M65.132 47.1444C64.532 47.1444 63.996 47.0084 63.524 46.7364C63.06 46.4644 62.688 46.0884 62.408 45.6084C62.136 45.1284 62 44.5804 62 43.9644C62 43.3404 62.136 42.7924 62.408 42.3204C62.688 41.8404 63.06 41.4644 63.524 41.1924C63.996 40.9204 64.532 40.7844 65.132 40.7844C65.732 40.7844 66.268 40.9204 66.74 41.1924C67.212 41.4644 67.584 41.8404 67.856 42.3204C68.128 42.7924 68.264 43.3404 68.264 43.9644C68.264 44.5804 68.128 45.1284 67.856 45.6084C67.584 46.0884 67.212 46.4644 66.74 46.7364C66.268 47.0084 65.732 47.1444 65.132 47.1444ZM65.132 46.6044C65.612 46.6044 66.044 46.4964 66.428 46.2804C66.812 46.0564 67.112 45.7444 67.328 45.3444C67.544 44.9444 67.652 44.4844 67.652 43.9644C67.652 43.4364 67.544 42.9764 67.328 42.5844C67.112 42.1844 66.812 41.8764 66.428 41.6604C66.044 41.4364 65.612 41.3244 65.132 41.3244C64.652 41.3244 64.22 41.4364 63.836 41.6604C63.46 41.8764 63.16 42.1844 62.936 42.5844C62.72 42.9764 62.612 43.4364 62.612 43.9644C62.612 44.4844 62.72 44.9444 62.936 45.3444C63.16 45.7444 63.46 46.0564 63.836 46.2804C64.22 46.4964 64.652 46.6044 65.132 46.6044Z" fill="white"/>
<path d="M73.5454 40.7844C74.0574 40.7844 74.5014 40.8844 74.8774 41.0844C75.2614 41.2764 75.5574 41.5724 75.7654 41.9724C75.9814 42.3644 76.0894 42.8524 76.0894 43.4364V47.0964H75.4894V43.4844C75.4894 42.7804 75.3094 42.2444 74.9494 41.8764C74.5974 41.5084 74.1014 41.3244 73.4614 41.3244C72.9734 41.3244 72.5494 41.4244 72.1894 41.6244C71.8294 41.8244 71.5534 42.1044 71.3614 42.4644C71.1774 42.8244 71.0854 43.2564 71.0854 43.7604V47.0964H70.4854V40.8324H71.0614V42.5724L70.9774 42.3804C71.1694 41.8844 71.4854 41.4964 71.9254 41.2164C72.3654 40.9284 72.9054 40.7844 73.5454 40.7844Z" fill="white"/>
<path d="M78.9196 47.0964V38.1924H79.5196V47.0964H78.9196Z" fill="white"/>
<path d="M82.4085 47.0964V40.8324H83.0085V47.0964H82.4085ZM82.7085 39.3084C82.5725 39.3084 82.4565 39.2604 82.3605 39.1644C82.2645 39.0684 82.2165 38.9564 82.2165 38.8284C82.2165 38.6924 82.2645 38.5764 82.3605 38.4804C82.4565 38.3844 82.5725 38.3364 82.7085 38.3364C82.8525 38.3364 82.9685 38.3844 83.0565 38.4804C83.1525 38.5684 83.2005 38.6804 83.2005 38.8164C83.2005 38.9524 83.1525 39.0684 83.0565 39.1644C82.9685 39.2604 82.8525 39.3084 82.7085 39.3084Z" fill="white"/>
<path d="M88.9574 40.7844C89.4694 40.7844 89.9134 40.8844 90.2894 41.0844C90.6734 41.2764 90.9694 41.5724 91.1774 41.9724C91.3934 42.3644 91.5014 42.8524 91.5014 43.4364V47.0964H90.9014V43.4844C90.9014 42.7804 90.7214 42.2444 90.3614 41.8764C90.0094 41.5084 89.5134 41.3244 88.8734 41.3244C88.3854 41.3244 87.9614 41.4244 87.6014 41.6244C87.2414 41.8244 86.9654 42.1044 86.7734 42.4644C86.5894 42.8244 86.4974 43.2564 86.4974 43.7604V47.0964H85.8974V40.8324H86.4734V42.5724L86.3894 42.3804C86.5814 41.8844 86.8974 41.4964 87.3374 41.2164C87.7774 40.9284 88.3174 40.7844 88.9574 40.7844Z" fill="white"/>
<path d="M96.8757 47.1444C96.2437 47.1444 95.6837 47.0084 95.1957 46.7364C94.7157 46.4644 94.3357 46.0884 94.0557 45.6084C93.7837 45.1284 93.6477 44.5804 93.6477 43.9644C93.6477 43.3404 93.7757 42.7924 94.0317 42.3204C94.2957 41.8404 94.6557 41.4644 95.1117 41.1924C95.5677 40.9204 96.0797 40.7844 96.6477 40.7844C97.2157 40.7844 97.7237 40.9164 98.1717 41.1804C98.6277 41.4444 98.9837 41.8164 99.2397 42.2964C99.5037 42.7684 99.6357 43.3164 99.6357 43.9404C99.6357 43.9644 99.6317 43.9924 99.6237 44.0244C99.6237 44.0484 99.6237 44.0764 99.6237 44.1084H94.0917V43.6404H99.2997L99.0597 43.8684C99.0677 43.3804 98.9637 42.9444 98.7477 42.5604C98.5397 42.1684 98.2557 41.8644 97.8957 41.6484C97.5357 41.4244 97.1197 41.3124 96.6477 41.3124C96.1837 41.3124 95.7677 41.4244 95.3997 41.6484C95.0397 41.8644 94.7557 42.1684 94.5477 42.5604C94.3397 42.9444 94.2357 43.3844 94.2357 43.8804V43.9884C94.2357 44.5004 94.3477 44.9564 94.5717 45.3564C94.8037 45.7484 95.1197 46.0564 95.5197 46.2804C95.9197 46.4964 96.3757 46.6044 96.8877 46.6044C97.2877 46.6044 97.6597 46.5324 98.0037 46.3884C98.3557 46.2444 98.6517 46.0244 98.8917 45.7284L99.2397 46.1244C98.9677 46.4604 98.6237 46.7164 98.2077 46.8924C97.7997 47.0604 97.3557 47.1444 96.8757 47.1444Z" fill="white"/>
</svg>
