<svg width="50" height="28" viewBox="0 0 50 28" fill="none" xmlns="http://www.w3.org/2000/svg">
<path d="M39.0402 0.0542491C38.7906 0.0309997 38.5334 0.0232497 38.2687 0.0154999C38.1779 0.0154999 38.0947 0 38.0039 0C37.9964 0 37.9812 0 37.9737 0C37.9585 0 37.951 0 37.9359 0C37.8602 0 37.7921 0.00774997 37.7165 0.00774997L20.2443 0C20.2367 0 20.2216 0 20.2141 0C20.2065 0 20.1914 0 20.1838 0C20.1687 0 20.1611 0 20.146 0C18.2777 0 16.3717 0.39524 14.6472 1.14697C10.6081 2.90617 3.82346 9.292 0.692081 12.3609C-0.230694 13.2676 -0.230694 14.7866 0.692081 15.6933C3.83103 18.7622 10.6232 25.1403 14.5564 26.853C16.2809 27.6048 18.1794 28 20.0552 28C20.0855 28 20.1157 28 20.146 28C20.1535 28 20.1687 28 20.1762 28H37.709C37.7543 28 37.7997 28 37.8375 28C37.8678 28 37.898 28 37.9283 28C37.951 28 37.9661 28 37.9888 28C38.1779 28 38.3519 27.9768 38.5334 27.969C38.6544 27.969 38.7754 27.9613 38.8889 27.9535C45.8173 27.4653 50 21.4127 50 13.9961C50 6.57957 45.8626 0.596734 39.025 0.0464991L39.0402 0.0542491Z" fill="#FF6432"/>
</svg>
