<svg width="38" height="38" viewBox="0 0 38 38" fill="none" xmlns="http://www.w3.org/2000/svg">
<path fill-rule="evenodd" clip-rule="evenodd" d="M4.03264 4.03208C1.58398 6.48066 1.58398 10.4215 1.58398 18.3035V19.6968C1.58398 27.5788 1.58398 31.5197 4.03264 33.9683C6.48115 36.4168 10.422 36.4168 18.304 36.4168H19.6973C27.5793 36.4168 31.5202 36.4168 33.9688 33.9683C36.4173 31.5197 36.4173 27.5788 36.4173 19.6968V18.3035C36.4173 10.4215 36.4173 6.48066 33.9688 4.03208C31.5202 1.5835 27.5793 1.5835 19.6973 1.5835H18.304C10.422 1.5835 6.48115 1.5835 4.03264 4.03208ZM7.46211 12.1786C7.65076 21.2354 12.179 26.6781 20.1181 26.6781H20.5683V21.4966C23.4855 21.7869 25.6914 23.9204 26.5768 26.6781H30.6988C29.5667 22.5561 26.5912 20.2774 24.7335 19.4065C26.5912 18.3326 29.2037 15.7201 29.8278 12.1786H26.0833C25.2704 15.0524 22.8614 17.6649 20.5683 17.9116V12.1786H16.8234V22.2223C14.5012 21.6417 11.5695 18.826 11.439 12.1786H7.46211Z" fill="#292D32"/>
</svg>
